<svg width="36" height="32" viewBox="0 0 36 32" fill="none" xmlns="http://www.w3.org/2000/svg">
<path d="M18.0985 13.3096C18.1455 13.3154 18.1748 13.3174 18.0985 13.3096V13.3096Z" fill="#04AAFF"/>
<path d="M31.3728 23.1988C31.367 22.8525 31.3494 22.5061 31.32 22.1617C31.3044 21.9798 31.2868 21.7978 31.2633 21.6178L31.2574 21.5767C31.2437 21.4867 31.23 21.3947 31.2163 21.3027C31.1048 20.6218 30.9404 19.9487 30.7487 19.2873C30.5804 18.7003 30.3847 18.1231 30.1616 17.5556C30.1343 17.4872 30.1069 17.4187 30.0795 17.3482C30.0736 17.3345 30.0638 17.313 30.054 17.2915C29.9797 17.131 30.0208 17.2152 30.054 17.2915C30.0599 17.3052 30.0658 17.3189 30.0736 17.3345C30.0227 17.223 29.9758 17.1095 29.9249 16.998C29.8153 16.7573 29.6999 16.5186 29.5785 16.2818C29.3535 15.8474 29.1089 15.4228 28.8428 15.0119C28.7196 14.8221 28.5924 14.6362 28.4593 14.4523C28.3967 14.3662 28.3321 14.2801 28.2676 14.194C28.246 14.1666 28.2245 14.1392 28.201 14.1118C27.7334 13.5287 27.2148 12.9867 26.6552 12.4917C26.5339 12.3841 26.4106 12.2804 26.2874 12.1786C26.2267 12.1277 26.1641 12.0788 26.1015 12.0279C26.0937 12.0221 26.0858 12.0162 26.078 12.0103C25.8745 11.8577 25.669 11.707 25.4616 11.5603C25.131 11.3294 24.7983 11.1044 24.4657 10.8774C24.0293 10.58 23.5636 10.3237 23.0901 10.0889C22.9277 10.0086 22.7653 9.93231 22.6009 9.85796C22.552 9.83644 22.5031 9.81491 22.4542 9.79339C22.4248 9.7836 22.3622 9.75425 22.3289 9.7386C22.3074 9.72882 22.2839 9.72099 22.2624 9.71121C21.8554 9.54684 21.4406 9.40009 21.0219 9.26899C20.5542 9.12419 20.0807 8.99896 19.6013 8.89917C19.345 8.84438 19.0886 8.79742 18.8304 8.75633C18.7619 8.74459 18.6934 8.73481 18.6249 8.72502C18.4958 8.70937 18.3647 8.69372 18.2355 8.68198C17.6739 8.62719 17.1104 8.60371 16.5469 8.61349C16.2455 8.61936 15.9442 8.63306 15.6429 8.6585C15.4824 8.67219 15.322 8.68785 15.1635 8.70546C15.1459 8.70741 15.1009 8.71328 15.0598 8.7172C15.0226 8.72307 14.9365 8.73481 14.915 8.73872C14.2614 8.83851 13.6138 8.98527 12.9798 9.17507C12.6432 9.27486 12.3106 9.38835 11.9838 9.51162C11.884 9.5488 11.7842 9.58793 11.6864 9.62902C11.6492 9.64468 11.6121 9.66033 11.5749 9.67403C11.4653 9.71708 11.6238 9.6525 11.6336 9.64859C11.4673 9.70729 11.3049 9.79339 11.1444 9.86774C10.6357 10.1065 10.1387 10.3726 9.66122 10.668C9.44794 10.7991 9.23857 10.9381 9.03311 11.0809C8.9255 11.1553 8.81983 11.2296 8.71613 11.3079C8.67112 11.3411 8.62612 11.3744 8.58112 11.4077C8.55959 11.4233 8.49698 11.4722 8.46958 11.4918C8.45589 11.5035 8.44219 11.5133 8.43632 11.5192C8.38544 11.5603 8.33457 11.6014 8.2837 11.6425C8.18977 11.7188 8.09585 11.7971 8.00389 11.8753C7.81213 12.0377 7.62233 12.206 7.4384 12.3762C7.07445 12.7128 6.7242 13.063 6.38765 13.427C6.04522 13.7968 5.71454 14.1803 5.39755 14.5736C5.32515 14.6636 5.25471 14.7556 5.18231 14.8456C5.17644 14.8534 5.16862 14.8632 5.16275 14.871C5.12948 14.916 5.09622 14.9591 5.061 15.0041C4.91033 15.2037 4.76358 15.4072 4.62074 15.6126C3.53281 17.1643 2.64055 18.8275 1.88135 20.5612L5.70084 27.1768C5.74389 27.1592 5.78694 27.1435 5.82998 27.1279C5.84955 27.12 5.86716 27.1122 5.88673 27.1024C5.94739 27.075 6.00804 27.0476 6.0687 27.0183C6.63028 26.7522 7.16642 26.4352 7.6732 26.0771C7.74364 26.0282 7.81213 25.9773 7.88061 25.9264C7.97454 25.8501 8.06846 25.7738 8.16042 25.6956C8.3424 25.5371 8.51654 25.3707 8.67895 25.1946C8.75722 25.1105 8.83353 25.0244 8.90593 24.9344C8.91963 24.9187 8.93332 24.9011 8.94506 24.8855C8.95093 24.8776 8.9568 24.8698 8.96267 24.862C9.08399 24.6957 9.19552 24.5235 9.29923 24.3454C9.40098 24.1693 9.4949 23.9893 9.58295 23.8073C9.62991 23.7114 9.67296 23.6136 9.71601 23.5177C9.73166 23.4806 9.74927 23.4434 9.76492 23.4062C10.1641 22.4376 10.5339 21.4554 10.9976 20.5161C11.0681 20.3733 11.1346 20.2226 11.2168 20.0857C11.2364 20.0524 11.2403 20.0505 11.2364 20.0661C11.2618 20.0054 11.2872 19.9428 11.3146 19.8841C11.3929 19.7237 11.4868 19.5691 11.5866 19.4223C12.7372 17.7415 14.6117 16.8199 16.6036 16.5851C18.0496 16.4149 19.6639 16.7847 20.8732 17.5987C21.6402 18.1153 22.2957 18.8001 22.7183 19.6258C23.2329 20.6277 23.4482 21.7508 23.4384 22.872C23.4169 25.0479 22.5892 27.1455 21.5326 29.018C20.9456 30.061 20.2705 31.055 19.5406 32.0059H24.1291C24.3541 32.0059 24.5792 31.9903 24.7983 31.959C25.0175 31.2174 25.2151 30.468 25.3873 29.7146C25.5927 28.8185 25.7649 27.9125 25.8941 27.0007C25.896 26.985 25.898 26.9576 25.8999 26.9283C25.9058 26.8559 25.9097 26.7854 25.8999 26.9283C25.8999 26.942 25.8999 26.9576 25.896 26.9772C25.8999 26.9283 25.9097 26.8774 25.9156 26.8285C25.9312 26.7033 25.9469 26.58 25.9606 26.4548C25.986 26.2297 26.0076 26.0028 26.0271 25.7777C26.0682 25.2964 26.0956 24.815 26.1073 24.3337C26.125 23.5823 26.1073 22.8309 26.0232 22.0835C26.0193 22.0541 26.0056 21.9328 25.9978 21.8721C25.9919 21.8311 25.986 21.788 25.9841 21.7724C25.9586 21.6139 25.9332 21.4534 25.9019 21.2949C25.8373 20.9584 25.761 20.6257 25.669 20.297C25.5771 19.9663 25.4714 19.6376 25.3521 19.3147C25.3168 19.2208 25.2816 19.1269 25.2444 19.0349C25.2386 19.0212 25.2327 19.0056 25.2268 18.9919C25.1603 18.8451 25.0957 18.6984 25.0253 18.5536C24.8707 18.2385 24.7005 17.9313 24.5165 17.632C24.4187 17.4735 24.315 17.3169 24.2074 17.1643C24.1585 17.0939 24.1076 17.0254 24.0587 16.9569C24.0822 16.9941 24.0822 17.0078 23.9941 16.8728C23.5343 16.3053 23.0275 15.7829 22.46 15.3211C22.417 15.2859 22.372 15.2506 22.3289 15.2154C22.2624 15.1665 22.1939 15.1156 22.1274 15.0667C21.9709 14.9552 21.8124 14.8476 21.6519 14.7439C21.2978 14.5169 20.9299 14.3075 20.5542 14.1177C20.4309 14.0551 20.3057 13.9944 20.1805 13.9357C20.1159 13.9064 19.9946 13.8164 19.9281 13.8222C20.0689 13.8809 20.0885 13.8888 19.9848 13.8457L19.9535 13.834C19.9007 13.8125 19.8498 13.7929 19.797 13.7733C19.7148 13.742 19.6306 13.7107 19.5465 13.6814C19.1532 13.5444 18.7482 13.4368 18.3392 13.3585C18.2375 13.3389 18.1201 13.3331 18.0183 13.3057C18.0027 13.3057 17.987 13.3018 17.9714 13.2998C17.7816 13.2802 17.5898 13.2665 17.398 13.2587C17.0224 13.245 16.6467 13.2587 16.2729 13.2979C16.2338 13.3018 16.1966 13.3057 16.1575 13.3115C16.0851 13.3233 16.0107 13.335 15.9383 13.3468C15.7583 13.38 15.5783 13.4172 15.3983 13.4622C15.0441 13.5503 14.6939 13.6579 14.3514 13.787C14.2673 13.8183 14.1832 13.8575 14.0971 13.8888C14.0677 13.9005 14.0403 13.9142 14.011 13.926C13.8544 13.9964 13.6999 14.0727 13.5453 14.151C13.2224 14.3173 12.9094 14.4993 12.6041 14.6969C12.4437 14.8006 12.2871 14.9082 12.1325 15.0178C12.0641 15.0667 11.9956 15.1176 11.9271 15.1704C11.8977 15.1939 11.8664 15.2174 11.8371 15.2389C11.8547 15.2272 11.8645 15.2193 11.8782 15.2096C11.8821 15.2076 11.884 15.2037 11.888 15.2017C11.9388 15.1606 12.0484 15.0863 11.8782 15.2096C11.6042 15.4326 11.3362 15.6596 11.0818 15.9022C10.8274 16.1429 10.5828 16.3934 10.35 16.6536C10.2287 16.7886 10.1113 16.9256 9.99777 17.0645C9.9469 17.1271 9.89602 17.1897 9.84711 17.2524C9.82558 17.2798 9.80406 17.3091 9.78058 17.3365C9.79623 17.3169 9.80797 17.3032 9.81971 17.2876C9.86276 17.2308 9.95277 17.1232 9.81971 17.2876C9.81775 17.2895 9.81384 17.2934 9.81188 17.2974C9.42837 17.8081 9.08595 18.3501 8.79635 18.9195C8.72983 19.0525 8.66525 19.1856 8.6046 19.3226C8.58894 19.3578 8.57329 19.393 8.55763 19.4282C8.54981 19.4458 8.54589 19.4556 8.54198 19.4615C8.53415 19.485 8.52828 19.5045 8.52437 19.5163C8.42849 19.7687 8.34631 20.025 8.27978 20.2872C8.1389 20.8449 7.54993 21.1266 7.01575 21.0053C6.46787 20.8801 6.16654 20.2618 6.29764 19.7413C6.36417 19.4791 6.44635 19.2228 6.54223 18.9703C7.60276 16.1879 9.84319 13.7596 12.4808 12.3919C13.9484 11.6307 15.5822 11.1748 17.2415 11.2022C19.1023 11.2316 20.8849 11.8655 22.462 12.8302C23.9217 13.7244 25.174 14.9102 26.121 16.3366C26.9487 17.583 27.5181 19.0212 27.8273 20.4829C28.1756 22.1246 28.2265 23.8054 28.1051 25.4744C27.9701 27.3079 27.6531 29.1315 27.209 30.9141C27.6708 30.5404 28.0699 30.0825 28.3771 29.5522L31.3533 24.3963C31.3748 23.9991 31.3846 23.6019 31.3768 23.2047L31.3728 23.1988Z" fill="#04AAFF"/>
<path d="M18.2257 2.41262C21.0903 2.62199 23.9255 3.23053 26.6317 4.19127C27.8605 4.62761 29.0756 5.12853 30.2516 5.7038L28.3751 2.45371C27.4985 0.935306 25.8783 0 24.1271 0H11.3146C9.56135 0 7.94315 0.935306 7.06655 2.45371L5.78882 4.66675C6.79652 4.17757 7.83945 3.76275 8.91368 3.4262C11.9074 2.48893 15.1027 2.18564 18.2257 2.41262Z" fill="#04AAFF"/>
<path d="M28.4612 7.12595C28.3184 7.06138 28.1736 6.99681 28.0288 6.93224C27.9584 6.90093 27.8879 6.87158 27.8175 6.84027C27.8136 6.84027 27.8096 6.83636 27.8057 6.8344C27.6081 6.75613 27.6335 6.76396 27.6981 6.79135C27.4633 6.69547 27.2305 6.5996 26.9937 6.50763C26.3969 6.27674 25.7923 6.0615 25.1818 5.86387C23.8845 5.44514 22.5618 5.10467 21.2214 4.85421C20.8809 4.78964 20.5405 4.7329 20.1981 4.68006C20.1178 4.66832 20.0356 4.65658 19.9554 4.64484C19.9554 4.64484 19.9163 4.64093 19.8106 4.62528C19.6502 4.60571 19.4897 4.58419 19.3293 4.56658C18.6053 4.48439 17.8774 4.43156 17.1495 4.40613C16.4157 4.38069 15.682 4.38656 14.9482 4.42374C14.5725 4.4433 14.1968 4.4707 13.8231 4.50787C13.6294 4.52744 13.4376 4.54701 13.2439 4.57049C13.1559 4.58027 13.0678 4.59397 12.9798 4.60375C13.3457 4.55875 13.0248 4.59788 12.9367 4.61158C11.3909 4.83856 9.86859 5.22012 8.40302 5.76212C8.2093 5.83257 8.01754 5.90692 7.82774 5.98519C7.73969 6.02041 7.6536 6.05954 7.56555 6.09281C7.89232 5.96758 7.54598 6.10063 7.47162 6.1339C7.09398 6.29826 6.7222 6.47437 6.3563 6.66025C5.59905 7.04377 4.86529 7.47229 4.15892 7.93994C4.01021 8.03778 3.86345 8.13952 3.71866 8.24127L0.656409 13.5459C-0.204542 15.0369 -0.218239 16.8684 0.613362 18.3731C0.916651 17.747 1.24147 17.1326 1.5878 16.5318C2.62094 14.7395 3.8615 13.0411 5.31142 11.5638C6.07258 10.7889 6.90026 10.0825 7.78274 9.44856C8.7787 8.73436 9.85294 8.17279 10.9839 7.70514C13.3809 6.71308 16.0498 6.34522 18.6249 6.66808C20.5874 6.91463 22.4757 7.4762 24.2406 8.37042C25.0722 8.79111 25.8392 9.31746 26.5984 9.8536C27.7783 10.6872 28.8604 11.642 29.7527 12.7828C31.1439 14.5634 32.1144 16.6023 32.7347 18.7742C32.9538 19.5393 33.1241 20.3161 33.2434 21.1027L34.7736 18.4533C35.6502 16.9349 35.6502 15.0643 34.7736 13.5479L32.2866 9.23919C31.9598 9.01809 31.6272 8.80676 31.2906 8.60326C30.3768 8.05539 29.4278 7.56621 28.4573 7.12595H28.4612Z" fill="#04AAFF"/>
<path d="M19.9574 4.64749C19.9574 4.64749 19.8967 4.63771 19.8556 4.63184C19.8478 4.63184 19.84 4.63184 19.8341 4.62988C19.8576 4.6338 19.8811 4.63575 19.9045 4.63967C19.9222 4.64162 19.9398 4.64554 19.9574 4.64749Z" fill="#04AAFF"/>
<path d="M19.7578 4.62012C19.7793 4.62403 19.7969 4.62599 19.8146 4.62794C19.8204 4.62794 19.8283 4.62794 19.8341 4.6299C19.8087 4.62599 19.7832 4.62207 19.7578 4.62012Z" fill="#04AAFF"/>
<path d="M17.8402 30.8491C17.8402 30.8491 17.846 30.8433 17.848 30.8393C17.8852 30.7904 17.9223 30.7415 17.9595 30.6926C18.028 30.6006 18.0984 30.5087 18.1669 30.4147C18.7696 29.5929 19.3312 28.7398 19.8262 27.8475C20.0767 27.3955 20.3115 26.9318 20.5209 26.4583C20.5424 26.4074 20.5639 26.3565 20.5874 26.3076C20.5913 26.2998 20.5932 26.292 20.5972 26.2822C20.6441 26.1687 20.6891 26.0532 20.7322 25.9378C20.8222 25.6991 20.9044 25.4604 20.9807 25.2177C21.1313 24.7325 21.2448 24.2394 21.3251 23.7384C21.3309 23.6856 21.3368 23.6328 21.3427 23.58C21.3544 23.4645 21.3642 23.3471 21.3701 23.2317C21.3857 22.9538 21.3857 22.676 21.372 22.3981C21.3642 22.2611 21.3544 22.1242 21.3388 21.9872C21.3309 21.9383 21.3231 21.8894 21.3153 21.8404C21.2722 21.6076 21.2174 21.3767 21.145 21.1497C21.1118 21.046 21.0746 20.9443 21.0355 20.8425C21.0198 20.8073 21.0042 20.7721 20.9865 20.7388C20.8926 20.5471 20.785 20.3612 20.6656 20.1851C20.6422 20.1498 20.6167 20.1166 20.5932 20.0814C20.5404 20.0187 20.4895 19.9561 20.4348 19.8974C20.3056 19.7565 20.1686 19.6254 20.0238 19.5041C20.0121 19.4943 20.0004 19.4846 19.9906 19.4728C19.9847 19.4689 19.9808 19.465 19.971 19.4591C19.8986 19.4083 19.8262 19.3574 19.7519 19.3085C19.5992 19.2106 19.4407 19.1206 19.2764 19.0404C19.1922 18.9993 19.1062 18.9641 19.022 18.923C19.3762 19.0913 19.0709 18.9465 18.9731 18.9093C18.8087 18.8486 18.6405 18.7978 18.4702 18.7528C18.3039 18.7097 18.1376 18.6725 17.9693 18.6451C17.9458 18.6412 17.9204 18.6373 17.8969 18.6334C17.8362 18.6275 17.7756 18.6197 17.713 18.6158C17.4058 18.5904 17.0966 18.5884 16.7914 18.6138C16.7483 18.6177 16.674 18.6275 16.627 18.6354C16.5624 18.6451 16.4959 18.6549 16.4313 18.6686C16.1457 18.7234 15.8639 18.7938 15.588 18.8839C15.4588 18.9249 15.3317 18.9739 15.2045 19.0228C15.1556 19.0443 15.1086 19.0658 15.0597 19.0893C14.8503 19.1891 14.6488 19.3006 14.4531 19.4259C14.3631 19.4846 14.2731 19.5452 14.185 19.6078C14.1616 19.6274 14.1361 19.647 14.1205 19.6587C13.9815 19.7742 13.8485 19.8955 13.7232 20.0246C13.6176 20.1322 13.5217 20.2457 13.4239 20.3612C13.42 20.3651 13.416 20.371 13.4141 20.3749C13.3808 20.4218 13.3476 20.4707 13.3143 20.5197C13.2243 20.6566 13.1441 20.7995 13.0717 20.9462C13.0404 21.0088 13.0423 21.001 13.058 20.9638C12.9347 21.2299 12.7938 21.4902 12.6666 21.7543C12.5473 22.0048 12.4318 22.2572 12.3222 22.5116C12.3144 22.5272 12.3085 22.5449 12.3007 22.5605C12.2831 22.6016 12.2655 22.6427 12.2498 22.6857C12.2048 22.7934 12.1618 22.9029 12.1187 23.0106C11.7724 23.8715 11.4593 24.7618 10.9643 25.5504C10.3773 26.4915 9.57894 27.2292 8.67885 27.8651C8.0801 28.2858 7.4246 28.6615 6.73389 28.9668L7.06848 29.546C7.71224 30.6613 8.75908 31.4596 9.96245 31.806C10.0799 31.7316 10.1953 31.6553 10.3107 31.579C10.4399 31.4909 10.5671 31.4009 10.6943 31.309C10.7549 31.2659 10.8136 31.2209 10.8723 31.1779C10.886 31.1661 10.9017 31.1563 10.9154 31.1446C11.1384 30.9665 11.3595 30.7885 11.5748 30.6006C12.0327 30.2015 12.467 29.7769 12.8799 29.3327C13.0814 29.1155 13.2752 28.8944 13.465 28.6674C13.5648 28.548 13.6626 28.4287 13.7585 28.3074C13.7663 28.2976 13.7722 28.2898 13.78 28.28C13.8133 28.2369 13.8465 28.1939 13.8778 28.1508C14.2144 27.6988 14.5294 27.2273 14.8131 26.74C14.9442 26.5131 15.0695 26.2841 15.1849 26.0493C15.2436 25.93 15.3023 25.8086 15.3571 25.6873C15.361 25.6775 15.3669 25.6678 15.3728 25.656C15.3845 25.6267 15.4041 25.5778 15.4178 25.5464C15.5841 25.1297 15.7191 24.7031 15.8032 24.2628C15.9128 23.6993 16.5585 23.4293 17.0673 23.5447C17.6367 23.6739 17.8871 24.2824 17.7854 24.8088C17.5545 26.0024 16.9929 27.1451 16.3531 28.1684C15.4686 29.5812 14.3631 30.8863 13.101 32.0016H16.9029C17.081 31.7923 17.261 31.5848 17.4332 31.3716C17.5721 31.1994 17.7071 31.0252 17.846 30.8511L17.8402 30.8491Z" fill="#04AAFF"/>
<path d="M22.4718 9.79305L22.3896 9.75783C22.3798 9.75392 22.37 9.75001 22.3602 9.74609C22.3915 9.75979 22.4248 9.77544 22.4561 9.78914C22.4659 9.79305 22.4718 9.79501 22.4718 9.79305Z" fill="#04AAFF"/>
<path d="M22.327 9.73478C22.2996 9.72304 22.3074 9.72695 22.329 9.73674C22.3387 9.74065 22.3485 9.74456 22.3583 9.74848C22.3485 9.74456 22.3368 9.73869 22.327 9.73478Z" fill="#04AAFF"/>
<path d="M19.9574 4.6475C19.9398 4.64554 19.9222 4.64163 19.9046 4.63967C19.8811 4.63576 19.8576 4.6338 19.8341 4.62989C19.8283 4.62989 19.8204 4.62989 19.8146 4.62793C19.9202 4.64358 19.9574 4.6475 19.9594 4.6475H19.9574Z" fill="#04AAFF"/>
<path d="M22.3582 9.74807C22.3582 9.74807 22.3386 9.74024 22.3289 9.73633C22.3621 9.75198 22.4247 9.77938 22.4541 9.79112C22.4208 9.77742 22.3895 9.76177 22.3582 9.74807Z" fill="#04AAFF"/>
<path d="M21.3232 23.7387C21.3232 23.7485 21.3212 23.7583 21.3193 23.7681C21.3017 23.9344 21.3584 23.5137 21.3232 23.7368V23.7387Z" fill="#04AAFF"/>
<path d="M20.6109 26.2495C20.6011 26.269 20.5932 26.2886 20.5854 26.3082C20.5776 26.3258 20.5698 26.3453 20.5619 26.363C20.5208 26.4667 20.6148 26.2377 20.6109 26.2495Z" fill="#04AAFF"/>
<path d="M17.8657 30.8184C17.8578 30.8301 17.848 30.8399 17.8402 30.8516C17.8265 30.8692 17.8128 30.8868 17.8011 30.9045C17.7169 31.014 17.852 30.8379 17.8676 30.8203L17.8657 30.8184Z" fill="#04AAFF"/>
<path d="M18.6248 8.72333C18.6248 8.72333 18.6288 8.72333 18.6307 8.72333C18.8831 8.75464 18.4468 8.69594 18.6248 8.72333Z" fill="#04AAFF"/>
<path d="M21.3369 21.9851C21.3369 21.991 21.3388 21.9969 21.3408 22.0027C21.3702 22.173 21.3115 21.7523 21.3369 21.9832V21.9851Z" fill="#04AAFF"/>
<path d="M17.8187 18.6217C17.8441 18.6256 17.8676 18.6295 17.893 18.6335C17.9107 18.6335 17.9283 18.6374 17.9459 18.6393C18.1005 18.655 17.6661 18.5963 17.8187 18.6217Z" fill="#04AAFF"/>
<path d="M20.5718 20.0579C20.5718 20.0579 20.5836 20.0736 20.5894 20.0814C20.5973 20.0912 20.6051 20.099 20.6129 20.1088C20.7166 20.2321 20.4564 19.8955 20.5718 20.0579Z" fill="#04AAFF"/>
<path d="M21.0238 20.8234C21.0238 20.8234 21.0278 20.8371 21.0317 20.8449C21.0356 20.8528 21.0395 20.8606 21.0434 20.8684C21.1138 21.0152 20.9436 20.6121 21.0238 20.8234Z" fill="#04AAFF"/>
<path d="M19.8909 19.3984C19.9241 19.416 19.9554 19.4454 19.9867 19.4728C20.0826 19.5374 19.9476 19.4278 19.8909 19.3984Z" fill="#04AAFF"/>
<path d="M16.6212 18.6358C16.6799 18.626 16.7366 18.6162 16.7953 18.6064C16.5331 18.6495 16.5468 18.6475 16.6212 18.6358Z" fill="#04AAFF"/>
<path d="M22.3093 15.1978C22.3093 15.1978 22.3171 15.2037 22.3211 15.2076C22.4991 15.3387 22.1352 15.0569 22.3093 15.1978Z" fill="#04AAFF"/>
<path d="M18.0985 13.3096C18.0554 13.3037 18.0006 13.2979 17.9948 13.2959C18.0006 13.2959 18.0065 13.2979 18.0104 13.2998C18.0358 13.3018 18.0593 13.3057 18.0848 13.3076C18.0906 13.3076 18.0945 13.3076 18.0985 13.3076V13.3096Z" fill="#04AAFF"/>
</svg>
